<svg width="20" height="20" viewBox="0 0 20 20" fill="none" xmlns="http://www.w3.org/2000/svg">
<path d="M8.376 0.59999V1.19999H7.776H7.176V1.79999V2.39999H6.576H5.976V2.98799V3.57599H5.376H4.776V4.17599V4.77599H4.176H3.576V5.37599V5.97599H2.988H2.4V6.57599V7.17599H1.8H1.2V7.77599V8.37599H0.6H0V9.56399V10.752H0.6H1.2V11.352V11.952H1.8H2.4V12.552V13.152H2.988H3.576V13.752V14.352H4.176H4.776V14.952V15.552H5.376H5.976V16.14V16.728H6.576H7.176V17.328V17.928H7.776H8.376V18.528V19.128H9.564H10.752V18.528V17.928H11.352H11.952V16.74V15.552H11.352H10.752V14.952V14.352H10.164H9.576V13.752V13.152H8.976H8.376V12.552V11.952H13.752H19.128V9.56399V7.17599H13.752H8.376V6.57599V5.97599H8.976H9.576V5.37599V4.77599H10.164H10.752V4.17599V3.57599H11.352H11.952V2.38799V1.19999H11.352H10.752V0.59999V-1.01859e-05H9.564H8.376V0.59999Z" fill="black"/>
</svg>
