<svg width="24" height="24" viewBox="0 0 24 24" fill="none" xmlns="http://www.w3.org/2000/svg">
<path d="M2.20801 2.15279C2.20801 2.15999 2.22481 2.18879 2.24881 2.21279C2.28481 2.25359 2.28481 2.25839 2.24401 2.30399C2.18641 2.36639 2.21761 2.39759 2.28001 2.33999C2.32561 2.29919 2.33041 2.29919 2.37601 2.33999C2.43841 2.39759 2.46961 2.36639 2.41201 2.30399C2.37121 2.25839 2.37121 2.25359 2.41201 2.20799C2.46961 2.14559 2.43841 2.11439 2.37601 2.17199C2.33041 2.21279 2.32561 2.21279 2.28481 2.17679C2.23921 2.13359 2.20801 2.12399 2.20801 2.15279Z" fill="black"/>
<path d="M2.664 2.53919C2.664 2.55359 2.676 2.57279 2.688 2.57999C2.7024 2.58959 2.7048 2.60879 2.6952 2.62319C2.6856 2.63999 2.6784 3.48719 2.6832 4.50479L2.688 6.35999H3.624H4.56V7.29599V8.23199H5.484H6.408V9.15599V10.08H7.344H8.28V11.94V13.8H7.344H6.408V14.736V15.672H5.484H4.56V16.596V17.52H3.624H2.688V19.38V21.24H4.548H6.408V20.316V19.392H7.344H8.28V18.456V17.52H9.204H10.128V16.596V15.672H11.988H13.848V16.596V17.52H14.784H15.72V18.456V19.392H16.644H17.568V20.316V21.24H19.428H21.288V19.38V17.52H20.364H19.44V16.596V15.672H18.504H17.568V14.736V13.8H16.644H15.72V11.94V10.08H16.644H17.568V9.15599V8.23199H18.504H19.44V7.29599V6.35999H20.364H21.288V4.49999V2.63999H19.428H17.568V3.57599V4.51199H16.644H15.72V5.43599V6.35999H14.784H13.848V7.29599V8.23199H11.988H10.128V7.29599V6.35999H9.204H8.28V5.43599V4.51199H7.344H6.408V3.57599V2.63999H4.5696C3.54 2.63999 2.7384 2.63039 2.7456 2.61839C2.7528 2.60879 2.7384 2.57999 2.712 2.55599C2.6856 2.53199 2.664 2.52479 2.664 2.53919Z" fill="black"/>
</svg>
