<svg width="24" height="24" viewBox="0 0 24 24" fill="none" xmlns="http://www.w3.org/2000/svg">
<path d="M10.2549 4.18807C9.84264 5.17756 8.6865 5.62457 7.71322 5.17536C6.10284 4.43211 4.43205 6.1029 5.1753 7.71328C5.62451 8.68656 5.1775 9.8427 4.18801 10.255C2.63688 10.9013 2.63688 13.0987 4.18801 13.745C5.1775 14.1573 5.62451 15.3135 5.1753 16.2867C4.43205 17.8971 6.10284 19.5679 7.71322 18.8246C8.6865 18.3754 9.84264 18.8224 10.2549 19.8119C10.9012 21.3631 13.0986 21.3631 13.7449 19.8119C14.1572 18.8224 15.3134 18.3754 16.2866 18.8246C17.897 19.5679 19.5678 17.8971 18.8245 16.2867C18.3753 15.3135 18.8223 14.1573 19.8118 13.745C21.363 13.0987 21.363 10.9013 19.8118 10.255C18.8223 9.8427 18.3753 8.68656 18.8245 7.71328C19.5678 6.1029 17.897 4.43211 16.2866 5.17536C15.3134 5.62457 14.1572 5.17756 13.7449 4.18807C13.0986 2.63694 10.9012 2.63694 10.2549 4.18807Z" stroke="#667A87" stroke-width="2" stroke-linecap="round" stroke-linejoin="round"/>
<path d="M15 12C15 13.6569 13.6569 15 12 15C10.3431 15 9 13.6569 9 12C9 10.3431 10.3431 9 12 9C13.6569 9 15 10.3431 15 12Z" stroke="#667A87" stroke-width="2"/>
</svg>
