<svg width="101" height="100" viewBox="0 0 101 100" fill="none" xmlns="http://www.w3.org/2000/svg">
<g clip-path="url(#clip0_1892_11)">
<mask id="mask0_1892_11" style="mask-type:luminance" maskUnits="userSpaceOnUse" x="0" y="0" width="101" height="100">
<path d="M100.5 0H0.5V100H100.5V0Z" fill="white"/>
</mask>
<g mask="url(#mask0_1892_11)">
<path d="M50.5 0C52.8012 0 54.6667 1.86548 54.6667 4.16667V16.6667C54.6667 18.9678 52.8012 20.8333 50.5 20.8333C48.1987 20.8333 46.3333 18.9678 46.3333 16.6667V4.16667C46.3333 1.86548 48.1987 0 50.5 0Z" fill="#FFF8AD"/>
<path fill-rule="evenodd" clip-rule="evenodd" d="M29.6667 50C29.6667 38.4941 38.9941 29.1667 50.5 29.1667C62.0058 29.1667 71.3333 38.4941 71.3333 50C71.3333 61.5058 62.0058 70.8333 50.5 70.8333C38.9941 70.8333 29.6667 61.5058 29.6667 50ZM50.5 37.5C43.5963 37.5 38 43.0963 38 50C38 56.9038 43.5963 62.5 50.5 62.5C57.4038 62.5 63 56.9038 63 50C63 43.0963 57.4038 37.5 50.5 37.5Z" fill="#FFF8AD"/>
<path d="M85.855 20.5373C87.4821 18.91 87.4821 16.2719 85.855 14.6447C84.2279 13.0175 81.5896 13.0175 79.9625 14.6447L71.1233 23.4835C69.4962 25.1107 69.4962 27.7489 71.1233 29.3761C72.7508 31.0033 75.3887 31.0033 77.0162 29.3761L85.855 20.5373Z" fill="#FFF8AD"/>
<path d="M100.5 50C100.5 52.3012 98.6346 54.1667 96.3333 54.1667H83.8333C81.5321 54.1667 79.6667 52.3012 79.6667 50C79.6667 47.6987 81.5321 45.8333 83.8333 45.8333H96.3333C98.6346 45.8333 100.5 47.6987 100.5 50Z" fill="#FFF8AD"/>
<path d="M79.9629 85.3554C81.59 86.9825 84.2283 86.9825 85.8554 85.3554C87.4825 83.7283 87.4825 81.09 85.8554 79.4629L77.0167 70.6242C75.3892 68.9967 72.7513 68.9967 71.1238 70.6242C69.4967 72.2512 69.4967 74.8896 71.1238 76.5167L79.9629 85.3554Z" fill="#FFF8AD"/>
<path d="M50.5 100C48.1987 100 46.3333 98.1346 46.3333 95.8333V83.3333C46.3333 81.0321 48.1987 79.1667 50.5 79.1667C52.8012 79.1667 54.6667 81.0321 54.6667 83.3333V95.8333C54.6667 98.1346 52.8012 100 50.5 100Z" fill="#FFF8AD"/>
<path d="M15.1451 79.4629C13.5179 81.09 13.5179 83.7283 15.1451 85.3554C16.7723 86.9825 19.4105 86.9825 21.0376 85.3554L29.8765 76.5167C31.5036 74.8892 31.5036 72.2513 29.8765 70.6238C28.2493 68.9967 25.6111 68.9967 23.9839 70.6238L15.1451 79.4629Z" fill="#FFF8AD"/>
<path d="M0.5 50C0.5 47.6987 2.36548 45.8333 4.66667 45.8333H17.1667C19.4678 45.8333 21.3333 47.6987 21.3333 50C21.3333 52.3012 19.4678 54.1667 17.1667 54.1667H4.66667C2.36548 54.1667 0.5 52.3012 0.5 50Z" fill="#FFF8AD"/>
<path d="M21.0373 14.6446C19.41 13.0174 16.7719 13.0174 15.1447 14.6446C13.5175 16.2718 13.5175 18.9099 15.1447 20.5371L23.9835 29.376C25.6107 31.0031 28.2489 31.0031 29.8761 29.376C31.5033 27.7488 31.5033 25.1106 29.8761 23.4834L21.0373 14.6446Z" fill="#FFF8AD"/>
</g>
</g>
<defs>
<clipPath id="clip0_1892_11">
<rect width="100" height="100" fill="white" transform="translate(0.5)"/>
</clipPath>
</defs>
</svg>
