<svg width="24" height="24" viewBox="0 0 24 24" fill="none" xmlns="http://www.w3.org/2000/svg">
<g clip-path="url(#clip0_1893_32)">
<path d="M9.75 8.44576C9.7785 8.44576 9.8025 8.43226 9.83025 8.43001C11.967 8.38426 13.6823 6.64051 13.6823 4.49701C13.6823 2.32426 11.9213 0.563263 9.7485 0.563263C7.9455 0.563263 6.426 1.77601 5.961 3.43051L5.95425 3.45826L5.94525 3.47701C5.859 3.78526 5.8095 4.13926 5.80875 4.50526C5.80875 5.02276 6.22875 5.44276 6.74625 5.44276C7.26375 5.44276 7.68375 5.02276 7.68375 4.50526C7.68375 4.31476 7.71 4.13101 7.758 3.95626L7.75425 3.97051L7.75875 3.96151C8.004 3.07651 8.802 2.43751 9.75 2.43751C10.8893 2.43751 11.8125 3.36076 11.8125 4.50001C11.8125 5.63926 10.8893 6.56251 9.75 6.56251C9.73575 6.56251 9.7245 6.57001 9.71025 6.57076L1.51125 6.56251C0.993753 6.56251 0.573753 6.98251 0.573753 7.50001C0.573753 8.01751 0.993003 8.43751 1.5105 8.43751L9.74925 8.44576H9.75ZM18.3518 3.65176C16.0223 3.65476 14.0595 5.22151 13.4565 7.35826L13.4475 7.39426L13.4378 7.41376C13.326 7.81126 13.2615 8.26801 13.2615 8.73976C13.2615 8.74126 13.2615 8.74201 13.2615 8.74351C13.2615 9.26101 13.6815 9.68101 14.199 9.68101C14.7165 9.68101 15.1365 9.26101 15.1365 8.74351C15.1365 8.74201 15.1365 8.73976 15.1365 8.73826C15.1365 8.44351 15.177 8.15776 15.2528 7.88701L15.2475 7.90951L15.2528 7.89976C15.6345 6.52201 16.8773 5.52751 18.3525 5.52751C20.1255 5.52751 21.5633 6.96526 21.5633 8.73826C21.5633 10.5113 20.1255 11.949 18.3525 11.949C18.333 11.949 18.3173 11.9588 18.2985 11.9603L3.0435 11.9453C2.52675 11.9475 2.109 12.366 2.109 12.8828C2.109 13.3995 2.52675 13.818 3.04275 13.8203L18.3525 13.8353C18.3923 13.8293 18.4268 13.8225 18.4605 13.8135L18.4545 13.815C21.2183 13.7603 23.4375 11.5065 23.4375 8.73451C23.4375 5.92801 21.1628 3.65326 18.3563 3.65326C18.3548 3.65326 18.3533 3.65326 18.3518 3.65326V3.65176ZM17.0385 14.4818C17.0153 14.4758 16.986 14.469 16.956 14.4645L16.9515 14.4638L3.042 14.4773C2.5245 14.4773 2.1045 14.8973 2.1045 15.4148C2.1045 15.9323 2.5245 16.3523 3.042 16.3523L16.908 16.3388C16.923 16.3395 16.9358 16.3478 16.9515 16.3478C18.378 16.3478 19.5338 17.5043 19.5338 18.93C19.5338 20.3558 18.3773 21.5123 16.9515 21.5123C15.765 21.5123 14.7653 20.712 14.463 19.6215L14.4585 19.6035L14.4533 19.5923C14.3978 19.392 14.3655 19.1625 14.3648 18.9248C14.3648 18.9233 14.3648 18.9225 14.3648 18.921C14.3648 18.4035 13.9455 17.9835 13.4273 17.9835C12.909 17.9835 12.4898 18.4028 12.4898 18.921C12.4898 18.9225 12.4898 18.9233 12.4898 18.9248C12.4898 18.9263 12.4898 18.9285 12.4898 18.93C12.4898 19.3425 12.546 19.7415 12.6503 20.1203L12.6428 20.0888C12.6465 20.1015 12.6548 20.1105 12.6585 20.1225C13.1963 22.0223 14.9153 23.3903 16.953 23.3903C19.4138 23.3903 21.4088 21.3953 21.4088 18.9345C21.4088 16.5038 19.4625 14.5275 17.043 14.4795H17.0385V14.4818Z" fill="white"/>
</g>
<defs>
<clipPath id="clip0_1893_32">
<rect width="24" height="24" fill="white"/>
</clipPath>
</defs>
</svg>
